<svg width="40" height="40" viewBox="0 0 40 40" fill="none" xmlns="http://www.w3.org/2000/svg">
<rect width="40" height="40" rx="12" fill="#1E1E1E"/>
<g clip-path="url(#clip0_1439_820)">
<path d="M30.1663 19.9558C30.1749 21.9163 29.602 23.8353 28.5201 25.4702C27.4381 27.1051 25.8957 28.3825 24.0878 29.1408C22.2799 29.8991 20.2877 30.1043 18.3632 29.7304C16.4387 29.3565 14.6682 28.4203 13.2758 27.0403C11.8833 25.6602 10.9313 23.8982 10.5402 21.9771C10.1491 20.0561 10.3364 18.0621 11.0785 16.2475C11.8206 14.4329 13.0841 12.8791 14.7092 11.7825C16.3344 10.6859 18.2482 10.0959 20.2086 10.087C22.8378 10.0754 25.3638 11.1085 27.2312 12.9593C29.0986 14.81 30.1544 17.3267 30.1663 19.9558Z" fill="#8DC63F"/>
<path d="M29.4194 19.9573C29.4277 21.7701 28.8982 23.5446 27.8979 25.0565C26.8976 26.5684 25.4714 27.7497 23.7998 28.4511C22.1281 29.1525 20.286 29.3424 18.5064 28.9968C16.7268 28.6512 15.0896 27.7857 13.8019 26.5097C12.5142 25.2337 11.6338 23.6045 11.272 21.8281C10.9102 20.0517 11.0834 18.208 11.7694 16.53C12.4555 14.852 13.6238 13.4151 15.1265 12.4011C16.6292 11.387 18.3989 10.8414 20.2117 10.8331C21.4154 10.8276 22.6084 11.0592 23.7226 11.5148C24.8367 11.9704 25.8503 12.6409 26.7053 13.4882C27.5603 14.3354 28.24 15.3428 28.7057 16.4528C29.1714 17.5627 29.4139 18.7536 29.4194 19.9573Z" fill="#F9E988"/>
<path d="M20.4207 11.4276C21.0034 11.3236 21.5999 11.3236 22.1826 11.4276C22.7709 11.5208 23.3396 11.7115 23.8652 11.9916C24.3874 12.2788 24.8396 12.6684 25.2888 13.036C25.7379 13.4037 26.1859 13.7755 26.612 14.1849C27.0466 14.5875 27.4258 15.0458 27.74 15.5479C28.064 16.0466 28.3293 16.5811 28.5307 17.1407C28.9225 18.2583 29.034 19.4551 28.8555 20.6259H28.797C28.625 19.5074 28.3373 18.4097 27.9385 17.3506C27.7474 16.8268 27.5223 16.3161 27.2648 15.8215C26.9942 15.3285 26.6964 14.8508 26.3729 14.3907C26.0428 13.925 25.6385 13.5167 25.176 13.1823C24.7112 12.8512 24.1764 12.636 23.6584 12.4324C23.1404 12.2287 22.6223 12.0261 22.0844 11.8705C21.5466 11.7148 20.9961 11.5989 20.4227 11.4861L20.4207 11.4276Z" fill="white"/>
<path d="M24.9012 16.7201C24.2359 16.5268 23.5435 16.2542 22.8479 15.9785C22.8082 15.803 22.6526 15.5848 22.3392 15.3184C21.8828 14.9226 21.0264 14.933 20.2859 15.1095C19.4691 14.9174 18.6618 14.8495 17.8837 15.0354C11.5492 16.7796 15.1421 21.044 12.8151 25.3262C13.1461 26.028 16.715 30.1306 21.8786 29.0266C21.8786 29.0266 20.1136 24.7831 24.0981 22.7464C27.3306 21.0889 29.667 18.0204 24.9012 16.7201Z" fill="#8BC53F"/>
<path d="M25.6835 19.5092C25.6841 19.5853 25.6621 19.6598 25.6203 19.7234C25.5785 19.787 25.5188 19.8368 25.4486 19.8664C25.3785 19.896 25.3012 19.9041 25.2265 19.8897C25.1517 19.8753 25.083 19.8391 25.0289 19.7855C24.9747 19.732 24.9377 19.6636 24.9225 19.5891C24.9073 19.5145 24.9146 19.4371 24.9435 19.3667C24.9723 19.2962 25.0214 19.2359 25.0845 19.1934C25.1477 19.1509 25.222 19.1281 25.2981 19.1279C25.3484 19.1277 25.3983 19.1373 25.4449 19.1563C25.4915 19.1753 25.534 19.2033 25.5697 19.2387C25.6055 19.2741 25.634 19.3162 25.6535 19.3626C25.673 19.409 25.6832 19.4588 25.6835 19.5092Z" fill="white"/>
<path d="M20.2859 15.1075C20.7475 15.1409 22.4176 15.6861 22.8479 15.9786C22.4917 14.9341 21.2812 14.7983 20.2859 15.1075Z" fill="#009345"/>
<path d="M20.7256 17.7414C20.7256 18.0925 20.6215 18.4358 20.4264 18.7278C20.2313 19.0198 19.954 19.2473 19.6296 19.3817C19.3051 19.5161 18.9481 19.5513 18.6037 19.4828C18.2593 19.4143 17.9429 19.2452 17.6946 18.9968C17.4463 18.7485 17.2772 18.4322 17.2087 18.0877C17.1402 17.7433 17.1753 17.3863 17.3097 17.0619C17.4441 16.7375 17.6717 16.4602 17.9637 16.2651C18.2556 16.07 18.5989 15.9658 18.9501 15.9658C19.421 15.9658 19.8726 16.1529 20.2056 16.4859C20.5386 16.8188 20.7256 17.2705 20.7256 17.7414Z" fill="white"/>
<path d="M20.2003 17.7567C20.2005 18.0034 20.1275 18.2446 19.9906 18.4499C19.8537 18.6551 19.659 18.8151 19.4312 18.9096C19.2033 19.0042 18.9526 19.029 18.7106 18.981C18.4686 18.933 18.2463 18.8143 18.0718 18.64C17.8973 18.4656 17.7784 18.2434 17.7302 18.0015C17.682 17.7595 17.7066 17.5087 17.801 17.2808C17.8954 17.0529 18.0552 16.8581 18.2603 16.721C18.4654 16.5839 18.7065 16.5107 18.9532 16.5107C19.2837 16.511 19.6006 16.6423 19.8344 16.8759C20.0681 17.1095 20.1997 17.4263 20.2003 17.7567Z" fill="#58595B"/>
<path d="M27.1196 20.2911C25.6835 21.3032 24.05 22.0667 21.7335 22.0667C20.6493 22.0667 20.43 20.9178 19.7135 21.4797C19.3428 21.7711 18.0424 22.4197 17.0032 22.3737C15.964 22.3278 14.2877 21.7168 13.8229 19.5078C13.6381 21.7168 13.543 23.344 12.7137 25.2094C14.366 27.8549 18.3046 29.8947 21.8786 29.0174C21.4953 26.3353 23.839 23.7075 25.1602 22.3633C25.6595 21.8547 26.6224 21.0233 27.1196 20.287V20.2911Z" fill="#8BC53F"/>
<path d="M27.0632 20.3579C26.6057 20.7513 26.0952 21.0787 25.5467 21.3302C25 21.59 24.43 21.7977 23.8443 21.9506C23.2594 22.1021 22.6474 22.2159 22.028 22.1595C21.4087 22.1031 20.7747 21.8921 20.3663 21.4284L20.3862 21.4054C20.8917 21.7323 21.4693 21.8472 22.0458 21.8639C22.6311 21.8809 23.2165 21.8322 23.791 21.7188C24.3714 21.5978 24.9393 21.423 25.4872 21.1965C26.044 20.9839 26.5682 20.6942 27.0444 20.3359L27.0632 20.3579Z" fill="#58595B"/>
</g>
<defs>
<clipPath id="clip0_1439_820">
<rect width="24" height="24" fill="white" transform="translate(8 8)"/>
</clipPath>
</defs>
</svg>
