<svg width="24" height="24" viewBox="0 0 24 24" fill="none" xmlns="http://www.w3.org/2000/svg">
<g clip-path="url(#clip0_1439_821)">
<path d="M22.1663 11.9558C22.1749 13.9163 21.602 15.8353 20.5201 17.4702C19.4381 19.1051 17.8957 20.3825 16.0878 21.1408C14.2799 21.8991 12.2877 22.1043 10.3632 21.7304C8.43867 21.3565 6.66824 20.4203 5.27577 19.0403C3.88329 17.6602 2.93131 15.8982 2.5402 13.9771C2.14909 12.0561 2.33642 10.0621 3.07849 8.24752C3.82057 6.43289 5.08406 4.87906 6.70921 3.7825C8.33436 2.68595 10.2482 2.09591 12.2086 2.08701C14.8378 2.07535 17.3638 3.10852 19.2312 4.95926C21.0986 6.81001 22.1544 9.32673 22.1663 11.9558Z" fill="#8DC63F"/>
<path d="M21.4194 11.9573C21.4277 13.7701 20.8982 15.5446 19.8979 17.0565C18.8976 18.5684 17.4714 19.7497 15.7998 20.4511C14.1281 21.1525 12.286 21.3424 10.5064 20.9968C8.72677 20.6512 7.0896 19.7857 5.8019 18.5097C4.5142 17.2337 3.63379 15.6045 3.27202 13.8281C2.91025 12.0517 3.08335 10.208 3.76945 8.52997C4.45554 6.85197 5.62381 5.41511 7.12652 4.40108C8.62923 3.38704 10.3989 2.84138 12.2117 2.8331C13.4154 2.8276 14.6084 3.05925 15.7226 3.51481C16.8367 3.97036 17.8503 4.64092 18.7053 5.48817C19.5603 6.33543 20.24 7.34281 20.7057 8.45277C21.1714 9.56274 21.4139 10.7536 21.4194 11.9573Z" fill="#F9E988"/>
<path d="M12.4207 3.42762C13.0034 3.3236 13.5999 3.3236 14.1826 3.42762C14.7709 3.52084 15.3396 3.71145 15.8652 3.99162C16.3874 4.27884 16.8396 4.66841 17.2888 5.03605C17.7379 5.40369 18.1859 5.77551 18.612 6.18492C19.0466 6.58747 19.4258 7.04578 19.74 7.54791C20.064 8.04664 20.3293 8.5811 20.5307 9.14067C20.9225 10.2583 21.034 11.4551 20.8555 12.6259H20.797C20.625 11.5074 20.3373 10.4097 19.9385 9.3506C19.7474 8.82683 19.5223 8.31606 19.2648 7.82155C18.9942 7.32847 18.6964 6.85078 18.3729 6.39068C18.0428 5.92499 17.6385 5.51674 17.176 5.18227C16.7112 4.85118 16.1764 4.63603 15.6584 4.43237C15.1404 4.2287 14.6223 4.02608 14.0844 3.87046C13.5466 3.71484 12.9961 3.59891 12.4227 3.48611L12.4207 3.42762Z" fill="white"/>
<path d="M16.9012 8.72005C16.2359 8.52683 15.5435 8.25424 14.8479 7.97851C14.8082 7.80304 14.6526 7.58476 14.3392 7.31843C13.8828 6.92259 13.0264 6.93303 12.2859 7.10954C11.4691 6.91737 10.6618 6.84948 9.88369 7.03539C3.54921 8.77959 7.14206 13.044 4.81506 17.3262C5.14615 18.028 8.71497 22.1306 13.8786 21.0266C13.8786 21.0266 12.1136 16.7831 16.0981 14.7464C19.3306 13.0889 21.667 10.0204 16.9012 8.72005Z" fill="#8BC53F"/>
<path d="M17.6835 11.5092C17.6841 11.5853 17.6621 11.6598 17.6203 11.7234C17.5785 11.787 17.5188 11.8368 17.4486 11.8664C17.3785 11.896 17.3012 11.9041 17.2265 11.8897C17.1517 11.8753 17.083 11.8391 17.0289 11.7855C16.9747 11.732 16.9377 11.6636 16.9225 11.5891C16.9073 11.5145 16.9146 11.4371 16.9435 11.3667C16.9723 11.2962 17.0214 11.2359 17.0845 11.1934C17.1477 11.1509 17.222 11.1281 17.2981 11.1279C17.3484 11.1277 17.3983 11.1373 17.4449 11.1563C17.4915 11.1753 17.534 11.2033 17.5697 11.2387C17.6055 11.2741 17.634 11.3162 17.6535 11.3626C17.673 11.409 17.6832 11.4588 17.6835 11.5092Z" fill="white"/>
<path d="M12.2859 7.1075C12.7475 7.14092 14.4176 7.68611 14.8479 7.97856C14.4917 6.93412 13.2812 6.79835 12.2859 7.1075Z" fill="#009345"/>
<path d="M12.7256 9.74135C12.7256 10.0925 12.6215 10.4358 12.4264 10.7278C12.2313 11.0198 11.954 11.2473 11.6296 11.3817C11.3051 11.5161 10.9481 11.5513 10.6037 11.4828C10.2593 11.4143 9.94292 11.2452 9.6946 10.9968C9.44629 10.7485 9.27719 10.4322 9.20868 10.0877C9.14017 9.74332 9.17533 9.38632 9.30972 9.06189C9.4441 8.73745 9.67168 8.46015 9.96366 8.26505C10.2556 8.06995 10.5989 7.96582 10.9501 7.96582C11.421 7.96582 11.8726 8.15289 12.2056 8.48586C12.5386 8.81884 12.7256 9.27045 12.7256 9.74135Z" fill="white"/>
<path d="M12.2003 9.75675C12.2005 10.0034 12.1275 10.2446 11.9906 10.4499C11.8537 10.6551 11.659 10.8151 11.4312 10.9096C11.2033 11.0042 10.9526 11.029 10.7106 10.981C10.4686 10.933 10.2463 10.8143 10.0718 10.64C9.89729 10.4656 9.77842 10.2434 9.73022 10.0015C9.68201 9.75953 9.70665 9.50874 9.801 9.28081C9.89536 9.05288 10.0552 8.85806 10.2603 8.72098C10.4654 8.58391 10.7065 8.51074 10.9532 8.51074C11.2837 8.51102 11.6006 8.64235 11.8344 8.87593C12.0681 9.10951 12.1997 9.42628 12.2003 9.75675Z" fill="#58595B"/>
<path d="M19.1196 12.2911C17.6835 13.3032 16.05 14.0667 13.7335 14.0667C12.6493 14.0667 12.43 12.9178 11.7135 13.4797C11.3428 13.7711 10.0424 14.4197 9.00323 14.3737C7.96402 14.3278 6.2877 13.7168 5.82293 11.5078C5.63807 13.7168 5.54302 15.344 4.71375 17.2094C6.36604 19.8549 10.3046 21.8947 13.8786 21.0174C13.4953 18.3353 15.839 15.7075 17.1602 14.3633C17.6595 13.8547 18.6224 13.0233 19.1196 12.287V12.2911Z" fill="#8BC53F"/>
<path d="M19.0632 12.3579C18.6057 12.7513 18.0952 13.0787 17.5467 13.3302C17 13.59 16.43 13.7977 15.8443 13.9506C15.2594 14.1021 14.6474 14.2159 14.028 14.1595C13.4087 14.1031 12.7747 13.8921 12.3663 13.4284L12.3862 13.4054C12.8917 13.7323 13.4693 13.8472 14.0458 13.8639C14.6311 13.8809 15.2165 13.8322 15.791 13.7188C16.3714 13.5978 16.9393 13.423 17.4872 13.1965C18.044 12.9839 18.5682 12.6942 19.0444 12.3359L19.0632 12.3579Z" fill="#58595B"/>
</g>
<defs>
<clipPath id="clip0_1439_821">
<rect width="24" height="24" fill="white"/>
</clipPath>
</defs>
</svg>
