<svg width="36" height="36" viewBox="0 0 36 36" fill="none" xmlns="http://www.w3.org/2000/svg">
<rect x="0.5" y="0.5" width="35" height="35" rx="12" fill="white" fill-opacity="0.05"/>
<g clip-path="url(#clip0_1_1068)">
<path d="M27.4998 21.3866C27.4998 21.9349 27.4998 22.4408 27.4445 22.9466C27.4434 23.0204 27.4247 23.0928 27.3899 23.1578C27.3552 23.2229 27.3054 23.2787 27.2447 23.3207C25.804 24.3591 24.2069 25.1613 22.5136 25.6969C22.4608 25.7213 22.4008 25.7248 22.3455 25.7066C22.2903 25.6885 22.244 25.6501 22.216 25.5991C21.895 25.1264 21.5971 24.6384 21.3233 24.1368C21.2511 23.9966 21.2978 23.9413 21.4254 23.8945C21.8853 23.7101 22.3326 23.4957 22.7644 23.2527C22.8834 23.1847 22.9131 23.1464 22.7984 23.0316C22.5773 22.8148 22.5688 22.8021 22.2968 22.9211C20.5582 23.6822 18.666 24.0271 16.7707 23.9285C15.332 23.8491 13.9193 23.5107 12.6007 22.9296C12.5099 22.9085 12.4148 22.915 12.3277 22.9483C12.2406 22.9817 12.1654 23.0403 12.1119 23.1166C12.0779 23.1889 12.1374 23.2017 12.1756 23.2357C12.4385 23.4195 12.7243 23.5681 13.0258 23.6778C13.2011 23.7647 13.3814 23.8414 13.5656 23.9073C13.6974 23.9541 13.6974 24.0136 13.6379 24.1198C13.3762 24.621 13.0808 25.1039 12.7537 25.5651C12.7318 25.6086 12.6938 25.6418 12.6477 25.6577C12.6017 25.6735 12.5513 25.6708 12.5072 25.6501L11.7505 25.4163C10.3013 24.918 8.93665 24.2013 7.70379 23.2909C7.66018 23.2626 7.62394 23.2243 7.59807 23.1793C7.5722 23.1342 7.55744 23.0836 7.55501 23.0316C7.33661 20.6754 7.6191 18.2996 8.38392 16.0603C8.90385 14.5816 9.60642 13.1736 10.4753 11.869C10.526 11.7927 10.5986 11.7334 10.6836 11.699C11.9056 11.148 13.1904 10.7483 14.5093 10.5088C14.5651 10.4911 14.6256 10.4959 14.678 10.5221C14.7304 10.5483 14.7705 10.5938 14.7899 10.6491C14.8961 10.8786 15.0279 11.0996 15.1172 11.3334C15.1262 11.3706 15.143 11.4054 15.1664 11.4356C15.1898 11.4658 15.2193 11.4907 15.253 11.5088C15.2867 11.5268 15.3238 11.5376 15.3619 11.5403C15.4001 11.5431 15.4383 11.5378 15.4742 11.5247C15.9955 11.4497 16.5206 11.4043 17.047 11.3887C17.834 11.3644 18.6215 11.4042 19.402 11.5077H19.5763C19.605 11.5181 19.6355 11.5224 19.666 11.5202C19.6964 11.518 19.726 11.5094 19.7529 11.4949C19.7798 11.4805 19.8033 11.4605 19.822 11.4364C19.8406 11.4122 19.8539 11.3844 19.8611 11.3547C19.9546 11.1209 20.0821 10.8999 20.1841 10.6661C20.1941 10.6323 20.211 10.601 20.2336 10.5741C20.2563 10.5472 20.2843 10.5253 20.3158 10.5097C20.3473 10.4942 20.3817 10.4853 20.4169 10.4837C20.452 10.482 20.4871 10.4877 20.5199 10.5003C21.8041 10.7376 23.0565 11.1227 24.2521 11.648C24.3975 11.7191 24.5187 11.8315 24.6007 11.9711C25.2249 12.9043 25.7614 13.8932 26.2033 14.9254C26.8961 16.534 27.3266 18.2432 27.4785 19.9881C27.4785 20.4641 27.4785 20.9445 27.4998 21.3866ZM19.0194 18.7086C18.9803 19.2481 19.1525 19.7816 19.4998 20.1963C19.6404 20.3883 19.8212 20.5474 20.0295 20.6625C20.2378 20.7776 20.4687 20.846 20.7061 20.863C20.9434 20.88 21.1817 20.8451 21.4042 20.7608C21.6268 20.6765 21.8284 20.5449 21.995 20.3749C22.3337 20.031 22.5488 19.5844 22.6065 19.1052C22.6642 18.6259 22.5612 18.1411 22.3138 17.7266C22.2003 17.5168 22.0431 17.3336 21.8529 17.1896C21.6626 17.0456 21.4438 16.9439 21.211 16.8916C20.9782 16.8392 20.7369 16.8373 20.5033 16.8861C20.2697 16.9348 20.0493 17.033 19.8568 17.174C19.608 17.3475 19.4028 17.5765 19.2575 17.8427C19.1122 18.109 19.0307 18.4054 19.0194 18.7086ZM12.3839 18.8786C12.3754 19.188 12.4399 19.4951 12.5721 19.7749C12.7043 20.0548 12.9005 20.2997 13.1448 20.4897C13.4598 20.7473 13.8589 20.8793 14.2653 20.8605C14.6718 20.8417 15.0569 20.6733 15.3467 20.3876C15.721 20.0145 15.9448 19.5165 15.9754 18.9889C16.006 18.4612 15.8412 17.9408 15.5125 17.5268C15.2586 17.1884 14.8856 16.9589 14.469 16.8847C14.0525 16.8106 13.6232 16.8972 13.2681 17.1273C12.986 17.3219 12.7572 17.5843 12.6028 17.8902C12.4483 18.1962 12.373 18.536 12.3839 18.8786Z" fill="white"/>
</g>
<defs>
<clipPath id="clip0_1_1068">
<rect width="20" height="15.2136" fill="white" transform="translate(7.5 10.5)"/>
</clipPath>
</defs>
</svg>
