<svg width="36" height="36" viewBox="0 0 36 36" fill="none" xmlns="http://www.w3.org/2000/svg">
<rect x="0.5" y="0.5" width="35" height="35" rx="12" fill="white" fill-opacity="0.05"/>
<path d="M13.4766 13.2627C10.5964 13.2627 8.2616 15.6129 8.2616 18.5135C8.5366 25.4797 18.418 25.4765 18.6918 18.5135C18.692 15.6137 16.3568 13.2627 13.4766 13.2627ZM21.8054 13.5707C20.3654 13.5707 19.1978 15.7843 19.1978 18.5135C19.3408 25.0729 24.2704 25.0729 24.413 18.5135C24.413 15.7843 23.2456 13.5707 21.8054 13.5707ZM25.8362 14.0849C24.6316 14.1701 24.6342 22.8619 25.836 22.9421C27.0402 22.8577 27.038 14.1647 25.8362 14.0849Z" fill="white"/>
</svg>
