<svg width="36" height="36" viewBox="0 0 36 36" fill="none" xmlns="http://www.w3.org/2000/svg">
<rect x="0.5" y="0.5" width="35" height="35" rx="12" fill="white" fill-opacity="0.05"/>
<g clip-path="url(#clip0_1_1083)">
<path d="M24.1217 11.387C22.3212 11.21 19.7113 11 17.5 11C15.2887 11 12.6788 11.21 10.8795 11.387C8.95264 11.5737 7.5 13.1777 7.5 15.1174V21.8826C7.5 23.8223 8.95264 25.4263 10.8783 25.6131C12.6788 25.7901 15.2887 26 17.5 26C19.7113 26 22.3212 25.7901 24.1205 25.6131C26.0474 25.4263 27.5 23.8223 27.5 21.8826V15.1174C27.5 13.1777 26.0474 11.5737 24.1217 11.387ZM15 22.25V14.75L21.25 18.4982L15 22.25Z" fill="white"/>
</g>
<defs>
<clipPath id="clip0_1_1083">
<rect width="20" height="20" fill="white" transform="translate(7.5 8.5)"/>
</clipPath>
</defs>
</svg>
