<svg width="36" height="36" viewBox="0 0 36 36" fill="none" xmlns="http://www.w3.org/2000/svg">
<rect x="0.5" y="0.5" width="35" height="35" rx="12" fill="white" fill-opacity="0.05"/>
<g clip-path="url(#clip0_1_1065)">
<path d="M14.2217 27.25C11.925 27.25 9.82538 26.6616 7.80328 25.4507C7.54998 25.2993 7.43707 24.9917 7.53289 24.7122C7.62994 24.4326 7.91497 24.2581 8.20001 24.2947C9.61541 24.4705 11.1315 24.1677 12.3132 23.5305C10.9661 23.0227 9.79486 21.9045 9.17902 20.4543C9.0838 20.2285 9.12836 19.9685 9.29438 19.7878C9.36701 19.7085 9.45673 19.6511 9.55439 19.6182C8.67487 18.7893 7.90705 17.5454 7.90705 15.9145C7.90705 15.6692 8.04987 15.447 8.27326 15.3457C8.38678 15.2944 8.51252 15.2798 8.63031 15.2969C8.09259 14.064 7.9394 12.4746 8.8006 10.9255C8.90375 10.7412 9.09296 10.6204 9.30414 10.6057C9.51471 10.5837 9.71979 10.6838 9.84675 10.8547C10.6451 11.9167 12.86 14.3313 16.7864 14.8159C16.7242 13.5647 16.9854 11.575 18.5858 10.5789C19.5043 10.0063 20.3008 9.75 21.1682 9.75C22.2875 9.75 23.2153 10.1272 24.1369 10.9658C24.8071 10.7839 25.7928 10.3274 25.9973 10.1748C26.2097 10.0173 26.4965 10.0112 26.7169 10.1565C26.9366 10.303 27.0403 10.5715 26.9769 10.8279C26.9012 11.1294 26.7657 11.4492 26.5911 11.7605C26.8341 11.6323 27.1319 11.686 27.3236 11.8826C27.5195 12.0852 27.5555 12.394 27.4121 12.6357C26.9207 13.4634 26.1389 14.2385 25.5859 14.6865C25.7849 17.6614 24.5599 20.9927 22.3394 23.4646C20.1501 25.9023 17.2729 27.2463 14.2388 27.25C14.2333 27.25 14.2272 27.25 14.2217 27.25Z" fill="white"/>
</g>
<defs>
<clipPath id="clip0_1_1065">
<rect width="20" height="20" fill="white" transform="translate(7.5 8.5)"/>
</clipPath>
</defs>
</svg>
