<svg width="36" height="36" viewBox="0 0 36 36" fill="none" xmlns="http://www.w3.org/2000/svg">
<rect x="0.5" y="0.5" width="35" height="35" rx="12" fill="white" fill-opacity="0.05"/>
<path d="M20.992 10.167H14.0087C10.9753 10.167 9.16699 11.9753 9.16699 15.0087V21.9837C9.16699 25.0253 10.9753 26.8337 14.0087 26.8337H20.9837C24.017 26.8337 25.8253 25.0253 25.8253 21.992V15.0087C25.8337 11.9753 24.0253 10.167 20.992 10.167ZM17.5003 21.7337C15.717 21.7337 14.267 20.2837 14.267 18.5003C14.267 16.717 15.717 15.267 17.5003 15.267C19.2837 15.267 20.7337 16.717 20.7337 18.5003C20.7337 20.2837 19.2837 21.7337 17.5003 21.7337ZM22.4337 14.2337C22.392 14.3337 22.3337 14.4253 22.2587 14.5087C22.1753 14.5837 22.0837 14.642 21.9837 14.6837C21.832 14.748 21.6646 14.7658 21.5028 14.7346C21.341 14.7034 21.1922 14.6248 21.0753 14.5087C21.0003 14.4253 20.942 14.3337 20.9003 14.2337C20.8575 14.1335 20.8349 14.0259 20.8337 13.917C20.8337 13.8087 20.8587 13.7003 20.9003 13.6003C20.942 13.492 21.0003 13.4087 21.0753 13.3253C21.267 13.1337 21.5587 13.042 21.8253 13.1003C21.8837 13.1087 21.9337 13.1253 21.9837 13.1503C22.0337 13.167 22.0837 13.192 22.1337 13.2253C22.1753 13.2503 22.217 13.292 22.2587 13.3253C22.3337 13.4087 22.392 13.492 22.4337 13.6003C22.4753 13.7003 22.5003 13.8087 22.5003 13.917C22.5003 14.0253 22.4753 14.1337 22.4337 14.2337Z" fill="white"/>
</svg>
