<svg width="36" height="36" viewBox="0 0 36 36" fill="none" xmlns="http://www.w3.org/2000/svg">
<rect width="36" height="36" rx="12" fill="white" fill-opacity="0.05"/>
<path fill-rule="evenodd" clip-rule="evenodd" d="M16.6669 12.1344L16.165 11.7792C15.4486 11.2723 14.5926 11 13.715 11H13.1026C12.6984 11 12.2901 11.0255 11.9091 11.1606C9.52645 12.0057 7.88749 15.095 8.00604 22.1026C8.02992 23.5145 8.3603 25.075 9.63423 25.6842C10.0312 25.8741 10.4967 26 11.0267 26C11.6627 26 12.1678 25.8187 12.5576 25.5632C12.9664 25.2953 13.3263 24.9471 13.6861 24.599C14.1307 24.1688 14.5751 23.7389 15.1112 23.4609C15.6952 23.1581 16.3434 23 17.0011 23H18.9989C19.6566 23 20.3048 23.1581 20.8888 23.4609C21.4249 23.7389 21.8693 24.1688 22.3139 24.599C22.6737 24.9471 23.0336 25.2953 23.4424 25.5632C23.8322 25.8187 24.3373 26 24.9733 26C25.5033 26 25.9688 25.8741 26.3658 25.6842C27.6397 25.075 27.9701 23.5145 27.994 22.1026C28.1125 15.095 26.4735 12.0057 24.0908 11.1606C23.7099 11.0255 23.3016 11 22.8974 11H22.2849C21.4074 11 20.5514 11.2723 19.8351 11.7792L19.3332 12.1344C18.9434 12.4103 18.4776 12.5584 18 12.5584C17.5225 12.5584 17.0567 12.4103 16.6669 12.1344ZM22.75 15C23.1642 15 23.5 15.3358 23.5 15.75C23.5 16.1642 23.1642 16.5 22.75 16.5C22.3358 16.5 22 16.1642 22 15.75C22 15.3358 22.3358 15 22.75 15ZM13.5 15.25C13.9142 15.25 14.25 15.5858 14.25 16V16.75H15C15.4142 16.75 15.75 17.0858 15.75 17.5C15.75 17.9142 15.4142 18.25 15 18.25H14.25V19C14.25 19.4142 13.9142 19.75 13.5 19.75C13.0858 19.75 12.75 19.4142 12.75 19V18.25H12C11.5858 18.25 11.25 17.9142 11.25 17.5C11.25 17.0858 11.5858 16.75 12 16.75H12.75V16C12.75 15.5858 13.0858 15.25 13.5 15.25ZM25 17.25C25 17.6642 24.6642 18 24.25 18C23.8358 18 23.5 17.6642 23.5 17.25C23.5 16.8358 23.8358 16.5 24.25 16.5C24.6642 16.5 25 16.8358 25 17.25ZM21.25 18C21.6642 18 22 17.6642 22 17.25C22 16.8358 21.6642 16.5 21.25 16.5C20.8358 16.5 20.5 16.8358 20.5 17.25C20.5 17.6642 20.8358 18 21.25 18ZM23.5 18.75C23.5 18.3358 23.1642 18 22.75 18C22.3358 18 22 18.3358 22 18.75C22 19.1642 22.3358 19.5 22.75 19.5C23.1642 19.5 23.5 19.1642 23.5 18.75Z" fill="white" fill-opacity="0.4"/>
</svg>
