<svg width="40" height="40" viewBox="0 0 40 40" fill="none" xmlns="http://www.w3.org/2000/svg">
<rect width="40" height="40" rx="12" fill="#1E1E1E"/>
<g clip-path="url(#clip0_1439_811)">
<path d="M17.4031 19.8107L17.1948 19.6016C17.1598 19.5664 17.1151 19.5423 17.0664 19.5325C17.0177 19.5227 16.9672 19.5276 16.9213 19.5466C16.8753 19.5656 16.8361 19.5977 16.8085 19.639C16.7809 19.6803 16.7662 19.7289 16.7663 19.7786V22.7664C16.7663 22.7993 16.7729 22.832 16.7856 22.8624C16.7982 22.8928 16.8168 22.9204 16.8401 22.9437C16.8635 22.9669 16.8912 22.9853 16.9217 22.9979C16.9522 23.0104 16.9849 23.0168 17.0178 23.0167H20.006C20.0559 23.017 20.1047 23.0025 20.1462 22.975C20.1877 22.9474 20.22 22.9081 20.239 22.862C20.258 22.8159 20.2628 22.7652 20.2527 22.7164C20.2427 22.6676 20.2182 22.6229 20.1826 22.5881C20.1359 22.5411 20.1097 22.4776 20.1097 22.4113C20.1097 22.3451 20.1359 22.2815 20.1826 22.2346L23.3615 19.0471C23.3848 19.0238 23.4032 18.9962 23.4158 18.9659C23.4284 18.9355 23.4348 18.903 23.4348 18.8701C23.4348 18.8372 23.4284 18.8047 23.4158 18.7743C23.4032 18.7439 23.3848 18.7163 23.3615 18.6931L23.0718 18.4047C23.0364 18.3698 23.0121 18.3251 23.0022 18.2763C22.9923 18.2275 22.9971 18.1769 23.0161 18.1309C23.0351 18.0849 23.0674 18.0456 23.1089 18.018C23.1503 17.9905 23.199 17.9759 23.2488 17.9762H26.2357C26.3022 17.9762 26.3659 18.0025 26.413 18.0494C26.4601 18.0963 26.4866 18.16 26.4869 18.2264V21.2142C26.4867 21.2638 26.4719 21.3122 26.4443 21.3534C26.4166 21.3946 26.3774 21.4267 26.3316 21.4456C26.2858 21.4645 26.2354 21.4694 26.1867 21.4598C26.1381 21.4501 26.0934 21.4262 26.0583 21.3912L25.8565 21.1902C25.8337 21.1664 25.8063 21.1474 25.7759 21.1344C25.7456 21.1214 25.7129 21.1147 25.6799 21.1147C25.6469 21.1147 25.6143 21.1214 25.5839 21.1344C25.5536 21.1474 25.5262 21.1664 25.5034 21.1902L20.1466 26.547C20.0994 26.5935 20.0357 26.6196 19.9694 26.6196C19.9031 26.6196 19.8394 26.5935 19.7922 26.547L13.2355 19.9903C13.2121 19.9671 13.1935 19.9394 13.1808 19.909C13.1681 19.8785 13.1616 19.8459 13.1616 19.8129C13.1616 19.7799 13.1681 19.7472 13.1808 19.7168C13.1935 19.6863 13.2121 19.6587 13.2355 19.6355L22.3133 10.5615C22.3599 10.5143 22.386 10.4507 22.386 10.3843C22.386 10.318 22.3599 10.2544 22.3133 10.2071L20.1766 8.07301C20.1295 8.02624 20.0658 8 19.9994 8C19.933 8 19.8693 8.02624 19.8222 8.07301L8.07289 19.8236C8.02612 19.8707 7.99988 19.9344 7.99988 20.0008C7.99988 20.0672 8.02612 20.1309 8.07289 20.178L19.8222 31.9273C19.8693 31.9741 19.933 32.0003 19.9994 32.0003C20.0658 32.0003 20.1295 31.9741 20.1766 31.9273L31.9255 20.178C31.9722 20.131 31.9984 20.0675 31.9984 20.0012C31.9984 19.935 31.9722 19.8714 31.9255 19.8245L25.0131 12.9121C24.9661 12.8654 24.9024 12.8391 24.8361 12.8391C24.7698 12.8391 24.7062 12.8654 24.6591 12.9121L17.7596 19.8116C17.7364 19.835 17.7088 19.8536 17.6783 19.8663C17.6479 19.879 17.6152 19.8855 17.5822 19.8855C17.5492 19.8855 17.5166 19.879 17.4861 19.8663C17.4557 19.8536 17.428 19.835 17.4048 19.8116L17.4031 19.8107Z" fill="#DE5959"/>
</g>
<defs>
<clipPath id="clip0_1439_811">
<rect width="23.9983" height="24" fill="white" transform="translate(8 8)"/>
</clipPath>
</defs>
</svg>
