<svg width="36" height="36" viewBox="0 0 36 36" fill="none" xmlns="http://www.w3.org/2000/svg">
<rect width="36" height="36" rx="8" fill="white" fill-opacity="0.05"/>
<path fill-rule="evenodd" clip-rule="evenodd" d="M23.834 14.6666C23.834 14.9428 23.6101 15.1666 23.334 15.1666L12.6673 15.1666C12.3912 15.1666 12.1673 14.9428 12.1673 14.6666C12.1673 14.3905 12.3912 14.1666 12.6673 14.1666L23.334 14.1666C23.6101 14.1666 23.834 14.3905 23.834 14.6666Z" fill="white"/>
<path fill-rule="evenodd" clip-rule="evenodd" d="M23.834 18C23.834 18.2761 23.6101 18.5 23.334 18.5H12.6673C12.3912 18.5 12.1673 18.2761 12.1673 18C12.1673 17.7239 12.3912 17.5 12.6673 17.5H23.334C23.6101 17.5 23.834 17.7239 23.834 18Z" fill="white"/>
<path fill-rule="evenodd" clip-rule="evenodd" d="M23.834 21.3334C23.834 21.6095 23.6101 21.8334 23.334 21.8334H12.6673C12.3912 21.8334 12.1673 21.6095 12.1673 21.3334C12.1673 21.0572 12.3912 20.8334 12.6673 20.8334H23.334C23.6101 20.8334 23.834 21.0572 23.834 21.3334Z" fill="white"/>
</svg>
