<svg width="36" height="36" viewBox="0 0 36 36" fill="none" xmlns="http://www.w3.org/2000/svg">
<rect width="36" height="36" rx="8" fill="white" fill-opacity="0.05"/>
<path d="M24.6675 17.3133V18.6866C24.6675 19.0533 24.3741 19.3533 24.0008 19.3666H22.6941C21.9741 19.3666 21.3141 18.84 21.2541 18.12C21.2141 17.7 21.3741 17.3066 21.6541 17.0333C21.9008 16.78 22.2408 16.6333 22.6141 16.6333H24.0008C24.3741 16.6466 24.6675 16.9466 24.6675 17.3133Z" fill="white"/>
<path d="M23.6473 20.3667H22.694C21.4273 20.3667 20.3607 19.4134 20.254 18.2C20.194 17.5067 20.4473 16.8134 20.954 16.32C21.3807 15.88 21.974 15.6334 22.614 15.6334H23.6473C23.8407 15.6334 24.0007 15.4734 23.9807 15.28C23.834 13.66 22.7607 12.5534 21.1673 12.3667C21.0073 12.34 20.8407 12.3334 20.6673 12.3334H14.6673C14.4807 12.3334 14.3007 12.3467 14.1273 12.3734C12.4273 12.5867 11.334 13.8534 11.334 15.6667V20.3334C11.334 22.1734 12.8273 23.6667 14.6673 23.6667H20.6673C22.534 23.6667 23.8207 22.5 23.9807 20.72C23.9844 20.6744 23.9785 20.6285 23.9634 20.5852C23.9482 20.542 23.9241 20.5024 23.8927 20.4691C23.8613 20.4358 23.8232 20.4095 23.7809 20.3918C23.7386 20.3742 23.6931 20.3656 23.6473 20.3667ZM18.6673 16.5H14.6673C14.394 16.5 14.1673 16.2734 14.1673 16C14.1673 15.7267 14.394 15.5 14.6673 15.5H18.6673C18.9407 15.5 19.1673 15.7267 19.1673 16C19.1673 16.2734 18.9407 16.5 18.6673 16.5Z" fill="white"/>
</svg>
