<svg width="36" height="36" viewBox="0 0 36 36" fill="none" xmlns="http://www.w3.org/2000/svg">
<rect width="36" height="36" rx="12" fill="white" fill-opacity="0.05"/>
<path fill-rule="evenodd" clip-rule="evenodd" d="M10.0993 14.5188C9.66663 15.3092 9.66663 16.2627 9.66663 18.1698V19.4373C9.66663 22.688 9.66663 24.3134 10.6429 25.3233C11.6192 26.3332 13.1906 26.3332 16.3333 26.3332H19.6666C22.8093 26.3332 24.3807 26.3332 25.357 25.3233C26.3333 24.3134 26.3333 22.688 26.3333 19.4373V18.1698C26.3333 16.2627 26.3333 15.3092 25.9006 14.5188C25.468 13.7283 24.6775 13.2378 23.0966 12.2566L21.4299 11.2222C19.7588 10.1851 18.9232 9.6665 18 9.6665C17.0767 9.6665 16.2411 10.1851 14.57 11.2222L12.9033 12.2566C11.3224 13.2378 10.532 13.7283 10.0993 14.5188ZM17.375 22.9998C17.375 23.345 17.6548 23.6248 18 23.6248C18.3451 23.6248 18.625 23.345 18.625 22.9998V20.4998C18.625 20.1547 18.3451 19.8748 18 19.8748C17.6548 19.8748 17.375 20.1547 17.375 20.4998V22.9998Z" fill="#C03DFF"/>
</svg>
