<svg width="31" height="31" viewBox="0 0 31 31" fill="none" xmlns="http://www.w3.org/2000/svg">
<rect width="31" height="31" rx="12" fill="white" fill-opacity="0.05"/>
<path opacity="0.32" d="M15 7.04169C10.0525 7.04169 6.04169 11.0525 6.04169 16C6.04169 20.9476 10.0525 24.9584 15 24.9584C19.9476 24.9584 23.9584 20.9476 23.9584 16C23.9584 11.0525 19.9476 7.04169 15 7.04169Z" fill="white"/>
<path fill-rule="evenodd" clip-rule="evenodd" d="M13.8333 12.6667C13.8333 12.0223 14.3556 11.5 15 11.5C15.6443 11.5 16.1666 12.0223 16.1666 12.6667C16.1666 13.311 15.6443 13.8333 15 13.8333C14.3556 13.8333 13.8333 13.311 13.8333 12.6667ZM15 14.4167C15.4142 14.4167 15.75 14.7525 15.75 15.1667V19.3333C15.75 19.7475 15.4142 20.0833 15 20.0833C14.5858 20.0833 14.25 19.7475 14.25 19.3333V15.1667C14.25 14.7525 14.5858 14.4167 15 14.4167Z" fill="white"/>
</svg>
