<svg width="20" height="20" viewBox="0 0 20 20" fill="none" xmlns="http://www.w3.org/2000/svg">
<path opacity="0.32" d="M10 1.04167C5.05247 1.04167 1.04169 5.05245 1.04169 10C1.04169 14.9476 5.05247 18.9583 10 18.9583C14.9476 18.9583 18.9584 14.9476 18.9584 10C18.9584 5.05245 14.9476 1.04167 10 1.04167Z" fill="white" fill-opacity="0.7"/>
<path fill-rule="evenodd" clip-rule="evenodd" d="M8.83331 6.66667C8.83331 6.02233 9.35565 5.5 9.99998 5.5C10.6443 5.5 11.1666 6.02233 11.1666 6.66667C11.1666 7.311 10.6443 7.83333 9.99998 7.83333C9.35565 7.83333 8.83331 7.311 8.83331 6.66667ZM9.99998 8.41667C10.4142 8.41667 10.75 8.75245 10.75 9.16667V13.3333C10.75 13.7475 10.4142 14.0833 9.99998 14.0833C9.58577 14.0833 9.24998 13.7475 9.24998 13.3333V9.16667C9.24998 8.75245 9.58577 8.41667 9.99998 8.41667Z" fill="white" fill-opacity="0.7"/>
</svg>
