<svg width="40" height="40" viewBox="0 0 40 40" fill="none" xmlns="http://www.w3.org/2000/svg">
<rect width="40" height="40" rx="12" fill="#1E1E1E"/>
<g clip-path="url(#clip0_1439_834)">
<path d="M28.5608 22.3407C28.3737 22.4696 28.1552 22.5457 27.9285 22.5609C27.7017 22.5762 27.475 22.53 27.2723 22.4272C26.7964 22.1584 26.54 21.528 26.54 20.669V18.0363C26.54 16.7725 26.0394 15.8733 25.202 15.6292C23.7868 15.2151 22.73 16.9486 22.3221 17.6006L19.8192 21.6516V16.7076C19.7914 15.5674 19.4206 14.8845 18.7192 14.6806C18.2557 14.5446 17.5604 14.6002 16.8837 15.6323L11.2878 24.6149C10.5432 23.1904 10.1571 21.6058 10.163 19.9985C10.163 14.5848 14.489 10.1815 19.8192 10.1815C25.1495 10.1815 29.4909 14.5848 29.4909 19.9985V20.0263C29.4909 20.0263 29.4909 20.0448 29.4909 20.0541C29.5435 21.1016 29.2036 21.9359 28.5639 22.3407H28.5608ZM31.6508 20.0015V19.949C31.6076 13.3519 26.3175 8 19.8192 8C13.321 8 8 13.3828 8 19.9985C8 26.6141 13.3024 32 19.8192 32C22.8081 31.9999 25.6833 30.8542 27.8532 28.7988C28.0639 28.6003 28.1878 28.3269 28.1982 28.0377C28.2086 27.7485 28.1047 27.4668 27.9088 27.2538C27.8151 27.1501 27.7019 27.066 27.5755 27.0063C27.4492 26.9466 27.3123 26.9125 27.1728 26.9059C27.0332 26.8993 26.8937 26.9203 26.7623 26.9678C26.6309 27.0153 26.5102 27.0884 26.4071 27.1827C25.4729 28.0689 24.3692 28.7571 23.1624 29.2062C21.9555 29.6552 20.6704 29.8557 19.3841 29.7957C18.0978 29.7357 16.837 29.4163 15.6772 28.8568C14.5174 28.2974 13.4826 27.5093 12.635 26.54L17.6717 18.4442V22.18C17.6717 23.9753 18.3669 24.5562 18.9509 24.7262C19.535 24.8961 20.428 24.7787 21.3642 23.2584L24.1452 18.7563C24.2318 18.611 24.3152 18.4874 24.3893 18.3793V20.669C24.3893 22.3469 25.063 23.6879 26.2433 24.3492C26.7801 24.6389 27.3849 24.7789 27.9943 24.7544C28.6038 24.73 29.1954 24.542 29.7072 24.2101C31.005 23.3666 31.7126 21.8401 31.6385 20.0015H31.6508Z" fill="white"/>
</g>
<defs>
<clipPath id="clip0_1439_834">
<rect width="23.6446" height="24" fill="white" transform="translate(8 8)"/>
</clipPath>
</defs>
</svg>
