<svg width="24" height="24" viewBox="0 0 24 24" fill="none" xmlns="http://www.w3.org/2000/svg">
<path d="M20.5608 14.3407C20.3737 14.4696 20.1552 14.5457 19.9285 14.5609C19.7017 14.5762 19.475 14.53 19.2723 14.4272C18.7964 14.1584 18.54 13.528 18.54 12.669V10.0363C18.54 8.7725 18.0394 7.87331 17.202 7.6292C15.7868 7.21514 14.73 8.94863 14.3221 9.60062L11.8192 13.6516V8.70761C11.7914 7.5674 11.4206 6.88451 10.7192 6.68057C10.2557 6.54461 9.56045 6.60023 8.88374 7.63229L3.28776 16.6149C2.54319 15.1904 2.15712 13.6058 2.163 11.9985C2.163 6.58478 6.48899 2.18154 11.8192 2.18154C17.1495 2.18154 21.4909 6.58478 21.4909 11.9985V12.0263C21.4909 12.0263 21.4909 12.0448 21.4909 12.0541C21.5435 13.1016 21.2036 13.9359 20.5639 14.3407H20.5608ZM23.6508 12.0015V11.949C23.6076 5.35187 18.3175 0 11.8192 0C5.32097 0 0 5.38277 0 11.9985C0 18.6141 5.30243 24 11.8192 24C14.8081 23.9999 17.6833 22.8542 19.8532 20.7988C20.0639 20.6003 20.1878 20.3269 20.1982 20.0377C20.2086 19.7485 20.1047 19.4668 19.9088 19.2538C19.8151 19.1501 19.7019 19.066 19.5755 19.0063C19.4492 18.9466 19.3123 18.9125 19.1728 18.9059C19.0332 18.8993 18.8937 18.9203 18.7623 18.9678C18.6309 19.0153 18.5102 19.0884 18.4071 19.1827C17.4729 20.0689 16.3692 20.7571 15.1624 21.2062C13.9555 21.6552 12.6704 21.8557 11.3841 21.7957C10.0978 21.7357 8.83696 21.4163 7.67718 20.8568C6.51739 20.2974 5.48262 19.5093 4.63499 18.54L9.67169 10.4442V14.18C9.67169 15.9753 10.3669 16.5562 10.9509 16.7262C11.535 16.8961 12.428 16.7787 13.3642 15.2584L16.1452 10.7563C16.2318 10.611 16.3152 10.4874 16.3893 10.3793V12.669C16.3893 14.3469 17.063 15.6879 18.2433 16.3492C18.7801 16.6389 19.3849 16.7789 19.9943 16.7544C20.6038 16.73 21.1954 16.542 21.7072 16.2101C23.005 15.3666 23.7126 13.8401 23.6385 12.0015H23.6508Z" fill="white"/>
</svg>
